<?xml version="1.0" encoding="iso-8859-1"?>
<!-- Generator: Adobe Illustrator 17.1.0, SVG Export Plug-In . SVG Version: 6.00 Build 0)  -->
<!DOCTYPE svg PUBLIC "-//W3C//DTD SVG 1.1//EN" "http://www.w3.org/Graphics/SVG/1.1/DTD/svg11.dtd">
<svg version="1.1" id="Capa_1" xmlns="http://www.w3.org/2000/svg" xmlns:xlink="http://www.w3.org/1999/xlink" x="0px" y="0px"
	 viewBox="0 0 487.887 487.887" style="enable-background:new 0 0 487.887 487.887;" xml:space="preserve">
<path d="M438.081,0H108.14C73.218,0,44.806,28.412,44.806,63.335v379.733c0,24.713,20.105,44.818,44.818,44.818h348.457
	c0.016,0,0.03-0.005,0.046-0.005c0.286-0.003,0.571-0.034,0.852-0.086c0.051-0.009,0.104-0.014,0.154-0.025
	c0.257-0.056,0.508-0.138,0.754-0.234c0.073-0.029,0.147-0.055,0.219-0.086c0.225-0.1,0.443-0.22,0.653-0.354
	c0.076-0.049,0.15-0.099,0.224-0.152c0.196-0.14,0.385-0.292,0.562-0.463c0.07-0.067,0.131-0.14,0.197-0.211
	c0.058-0.063,0.119-0.121,0.175-0.187c0.036-0.042,0.057-0.091,0.091-0.135c0.14-0.18,0.266-0.367,0.381-0.564
	c0.054-0.094,0.106-0.187,0.154-0.283c0.095-0.191,0.176-0.388,0.246-0.592c0.038-0.11,0.073-0.219,0.102-0.33
	c0.053-0.196,0.091-0.395,0.12-0.6c0.018-0.126,0.03-0.251,0.038-0.378c0.007-0.105,0.031-0.206,0.031-0.313V403.25V5
	C443.081,2.239,440.843,0,438.081,0z M424.443,443.068c0-8.73,4.315-17.823,8.638-24.741v51.195
	C428.8,463.232,424.443,454.122,424.443,443.068z M54.806,63.335c0-24.726,16.915-45.57,39.779-51.584v332.512c0,2.761,2.239,5,5,5
	s5-2.239,5-5V10.132c1.177-0.078,2.36-0.132,3.556-0.132h324.94v388.25H104.585v-15.462c0-2.761-2.239-5-5-5s-5,2.239-5,5v15.462
	h-4.961c-14.044,0-26.594,6.499-34.818,16.641V63.335z M54.806,443.068c0-19.199,15.619-34.818,34.818-34.818h338.139
	c-5.813,8.238-13.32,21.46-13.32,34.818c0,15.312,6.585,27.301,12.287,34.818H89.624C70.425,477.887,54.806,462.267,54.806,443.068z
	 M403.055,431.945c0,2.761-2.238,5-5,5H89.679c-2.761,0-5-2.239-5-5c0-2.762,2.239-5,5-5h308.376
	C400.817,426.945,403.055,429.184,403.055,431.945z M403.055,456.526c0,2.762-2.238,5-5,5H89.679c-2.761,0-5-2.238-5-5
	c0-2.761,2.239-5,5-5h308.376C400.817,451.526,403.055,453.765,403.055,456.526z"/>
<g>
</g>
<g>
</g>
<g>
</g>
<g>
</g>
<g>
</g>
<g>
</g>
<g>
</g>
<g>
</g>
<g>
</g>
<g>
</g>
<g>
</g>
<g>
</g>
<g>
</g>
<g>
</g>
<g>
</g>
</svg>
